<svg height='300px' width='300px'  fill="#e2b13c" xmlns="http://www.w3.org/2000/svg" version="1.1" viewBox="0 0 64 64" x="0px" y="0px"><title>gallery</title><path d="M5.16 2.299c-1.624 0-2.959 1.335-2.959 2.959v53.433c0 0.354 0.049 0.552 0.049 0.496v0.099c0 0.012-0.005 0.033 0.006 0.129 0.006 0.059 0.103 0.217 0.168 0.351l-0.027-0.017c-0.005-0.011 0.045 0.139 0.149 0.348l-0.035-0.147c0.012 0.014 0.003 0.021 0.017 0.034 0.011 0.011 0.017 0.004 0.028 0.014 0.027 0.209 0.12 0.392 0.257 0.532l-0-0 0.049 0.050-0.068-0.096h-0.001l-0.099-0.139c0.037 0.074 0.056 0.074 0.093 0.125 0 0 0.001 0.001 0.001 0.001 0.058 0.078 0.115 0.164 0.145 0.194 0.039 0.064 0.083 0.12 0.133 0.17l0.049 0.049c-0.001-0.001 0 0 0.002 0.001l0.002 0.002 0.1 0.099c0.005 0.005 0.011 0.010 0.017 0.016l0.001 0.001c0.010 0.011 0.018 0.021 0.028 0.031l-0-0c0.038 0.038 0.052 0.035 0.090 0.064 0.001 0.001 0.004 0.003 0.007 0.005l0.002 0.002c0.031 0.023 0.048 0.036 0.074 0.052l0.033 0.032c0.004 0.004 0.009 0.008 0.014 0.013l0.001 0.001c0.010 0.011 0.018 0.021 0.028 0.030l-0-0c0.009 0.009 0.008 0.002 0.017 0.010 0.070 0.058 0.15 0.106 0.236 0.142l0.006 0.002c0.067 0.056 0.144 0.103 0.227 0.139l0.006 0.002c0.028 0.017 0.061 0.034 0.096 0.049l0.006 0.002c0.047 0.028 0.102 0.053 0.159 0.073l0.006 0.002c0.325 0.108 0.591 0.097 0.739 0.097h53.681c1.624 0 2.959-1.335 2.959-2.959v-53.532c0-1.624-1.335-2.959-2.959-2.959zM8.119 8.218h47.762v30.201l-8.507-8.13c-0.002-0.002-0.006-0.005-0.009-0.008l-0.001-0.001c-0.998-0.927-2.501-1.073-3.65-0.355-0.011 0.006-0.017 0.010-0.023 0.014l0.004-0.002-8.843 5.834-6.065-6.11c-0.003-0.004-0.003-0.005-0.004-0.006l0.002 0.003c-0.991-0.991-2.526-1.146-3.675-0.427-0.007 0.003-0.008 0.004-0.009 0.004l0.005-0.002-16.986 10.714zM26.259 35.511l3.542 3.578-21.681 14.172v-6.312zM44.99 36.203l10.891 10.382v9.197h-40.818zM2.449 59.684c0 0.063 0.040 0.071 0.056 0.133l-0.029-0.018zM3.728 61.359c0.003 0.002 0.005 0.002 0.008 0.004-0.003-0.002-0.003 0.001-0.006-0.001-0.001-0-0.001-0.002-0.002-0.003z"></path></svg>