<svg height='300px' width='300px'  fill="#e2b13c" xmlns="http://www.w3.org/2000/svg" xmlns:xlink="http://www.w3.org/1999/xlink" xml:space="preserve" version="1.1" style="shape-rendering:geometricPrecision;text-rendering:geometricPrecision;image-rendering:optimizeQuality;" viewBox="0 0 338 213" x="0px" y="0px" fill-rule="evenodd" clip-rule="evenodd"><defs><style type="text/css">
   
    .fil1 {fill:#e2b13c}
    .fil0 {fill:#e2b13c;fill-rule:nonzero}
   
  </style></defs><g><path class="fil0" d="M44 0l152 0c25,0 44,20 44,44l0 125c0,24 -19,44 -44,44l-152 0c-24,0 -44,-20 -44,-44l0 -125c0,-24 20,-44 44,-44zm152 24l-152 0c-11,0 -20,9 -20,20l0 125c0,11 9,20 20,20l152 0c12,0 20,-9 20,-20l0 -125c0,-11 -8,-20 -20,-20z"></path><path class="fil0" d="M251 67l68 -47c8,-5 19,0 19,10l0 0 0 153c0,10 -12,15 -19,9l-69 -47c-3,-2 -5,-6 -5,-10l0 0 0 -58c0,-4 2,-8 6,-10zm18 17l0 45 45 31 0 -107 -45 31z"></path><path class="fil1" d="M156 98l-32 -21 -29 -20c-3,-2 -6,-2 -10,-1 -3,2 -5,5 -5,9l0 41 0 42c0,3 2,6 5,8 4,2 7,2 10,-1l29 -19 32 -22c3,-2 4,-4 4,-8 0,-3 -1,-6 -4,-8z"></path></g></svg>