<svg height='300px' width='300px'  fill="#e2b13c" xmlns="http://www.w3.org/2000/svg" xmlns:xlink="http://www.w3.org/1999/xlink" xml:space="preserve" version="1.1" style="shape-rendering:geometricPrecision;text-rendering:geometricPrecision;image-rendering:optimizeQuality;" viewBox="0 0 339 264" x="0px" y="0px" fill-rule="evenodd" clip-rule="evenodd"><defs><style type="text/css">
   
    .fil1 {fill:#e2b13c}
    .fil0 {fill:#e2b13c;fill-rule:nonzero}
   
  </style></defs><g><path class="fil0" d="M35 32l80 0 3 -24c1,-5 5,-8 9,-8l85 0c4,0 8,3 8,8l4 24 80 0c19,0 35,16 35,35l0 163c0,19 -16,34 -35,34l-269 0c-19,0 -35,-15 -35,-34l0 -163c0,-19 16,-35 35,-35zm269 17l-269 0c-10,0 -18,8 -18,18l0 163c0,10 8,18 18,18l269 0c10,0 18,-8 18,-18l0 -163c0,-10 -8,-18 -18,-18z"></path><path class="fil0" d="M169 67c45,0 82,37 82,81 0,45 -37,82 -82,82 -44,0 -81,-37 -81,-82 0,-44 37,-81 81,-81zm0 17c-35,0 -64,29 -64,64 0,36 29,65 64,65 36,0 65,-29 65,-65 0,-35 -29,-64 -65,-64z"></path><path class="fil1" d="M267 64l29 0c5,0 9,4 9,9l0 12c0,5 -4,9 -9,9l-29 0c-4,0 -8,-4 -8,-9l0 -12c0,-5 4,-9 8,-9z"></path><circle class="fil1" cx="169" cy="148" r="40"></circle></g></svg>